<svg width="661" height="467" viewBox="0 0 661 467" fill="none" xmlns="http://www.w3.org/2000/svg">
<path d="M290 459C348.878 459 405.345 435.611 446.978 393.978C488.611 352.345 512 295.878 512 237C512 178.122 488.611 121.655 446.978 80.0223C405.345 38.3892 348.878 15 290 15L290 237L290 459Z" fill="white"/>
<path d="M439.759 241.38C439.759 319.185 376.685 382.259 298.88 382.259C221.074 382.259 158 319.185 158 241.38C158 163.574 221.074 100.5 298.88 100.5C376.685 100.5 439.759 163.574 439.759 241.38ZM179.132 241.38C179.132 307.514 232.745 361.127 298.88 361.127C365.014 361.127 418.627 307.514 418.627 241.38C418.627 175.245 365.014 121.632 298.88 121.632C232.745 121.632 179.132 175.245 179.132 241.38Z" fill="#EDEEFF"/>
<path d="M276.251 113.046C275.238 107.299 279.074 101.777 284.881 101.197C303.422 99.3456 322.183 101.187 340.069 106.656C361.33 113.156 380.75 124.595 396.743 140.039C412.735 155.483 424.846 174.493 432.084 195.514C439.322 216.535 441.482 238.97 438.388 260.986C435.294 283.002 427.033 303.973 414.281 322.185C401.53 340.397 384.648 355.332 365.019 365.769C345.389 376.206 323.567 381.85 301.338 382.238C282.638 382.564 264.096 379.163 246.783 372.273C241.362 370.115 239.196 363.75 241.754 358.505C244.312 353.26 250.624 351.129 256.074 353.215C270.365 358.685 285.604 361.377 300.969 361.109C319.864 360.779 338.412 355.982 355.098 347.111C371.783 338.239 386.132 325.544 396.971 310.064C407.81 294.584 414.832 276.759 417.462 258.045C420.092 239.332 418.256 220.261 412.103 202.394C405.951 184.526 395.657 168.368 382.063 155.24C368.47 142.113 351.962 132.389 333.89 126.864C319.195 122.371 303.804 120.759 288.559 122.078C282.745 122.58 277.264 118.792 276.251 113.046Z" fill="#167FFC"/>
<path d="M406.704 241.38C406.704 300.929 358.429 349.204 298.88 349.204C239.33 349.204 191.056 300.929 191.056 241.38C191.056 181.83 239.33 133.556 298.88 133.556C358.429 133.556 406.704 181.83 406.704 241.38ZM212.62 241.38C212.62 289.019 251.24 327.639 298.88 327.639C346.519 327.639 385.139 289.019 385.139 241.38C385.139 193.74 346.519 155.12 298.88 155.12C251.24 155.12 212.62 193.74 212.62 241.38Z" fill="#EDEEFF"/>
<path d="M294.647 144.43C294.387 138.481 299.009 133.391 304.955 133.726C329.682 135.121 353.303 145.003 371.725 161.883C392.808 181.203 405.354 208.107 406.601 236.676C407.849 265.246 397.696 293.141 378.376 314.224C361.496 332.646 338.826 344.549 314.314 348.094C308.42 348.946 303.372 344.278 303.113 338.329C302.853 332.38 307.487 327.415 313.357 326.416C332.148 323.217 349.463 313.857 362.477 299.656C377.932 282.789 386.055 260.473 385.057 237.617C384.059 214.761 374.023 193.238 357.156 177.783C342.954 164.769 324.889 156.954 305.891 155.405C299.956 154.922 294.907 150.38 294.647 144.43Z" fill="#7579FF"/>
<path d="M373.648 241.38C373.648 282.673 340.173 316.148 298.88 316.148C257.586 316.148 224.111 282.673 224.111 241.38C224.111 200.086 257.586 166.611 298.88 166.611C340.173 166.611 373.648 200.086 373.648 241.38ZM239.065 241.38C239.065 274.414 265.845 301.194 298.88 301.194C331.914 301.194 358.694 274.414 358.694 241.38C358.694 208.345 331.914 181.565 298.88 181.565C265.845 181.565 239.065 208.345 239.065 241.38Z" fill="#EDEEFF"/>
<path d="M275.865 178.146C274.452 174.266 276.447 169.936 280.449 168.918C289.421 166.636 298.76 166.035 307.992 167.168C319.703 168.606 330.908 172.796 340.69 179.394C350.472 185.992 358.553 194.811 364.274 205.131C369.994 215.451 373.191 226.978 373.603 238.77C374.014 250.562 371.63 262.284 366.643 272.978C361.656 283.672 354.21 293.033 344.912 300.298C335.614 307.562 324.729 312.523 313.146 314.774C304.017 316.549 294.658 316.601 285.549 314.95C281.486 314.214 279.194 310.034 280.332 306.065C281.47 302.095 285.61 299.85 289.69 300.484C296.51 301.545 303.481 301.42 310.293 300.095C319.559 298.294 328.267 294.326 335.705 288.514C343.144 282.703 349.101 275.213 353.09 266.658C357.08 258.103 358.987 248.726 358.658 239.292C358.329 229.858 355.771 220.637 351.195 212.381C346.618 204.125 340.153 197.069 332.328 191.791C324.502 186.512 315.538 183.161 306.169 182.011C299.281 181.165 292.318 181.526 285.589 183.06C281.563 183.978 277.277 182.026 275.865 178.146Z" fill="#FD3259"/>
<path d="M277.346 227.121C277.472 224.602 278.354 222.663 279.991 221.303C281.653 219.918 283.832 219.225 286.526 219.225C288.365 219.225 289.939 219.553 291.249 220.207C292.558 220.837 293.54 221.706 294.195 222.814C294.875 223.897 295.215 225.131 295.215 226.516C295.215 228.103 294.8 229.45 293.969 230.558C293.163 231.641 292.193 232.372 291.06 232.75V232.901C292.52 233.354 293.654 234.16 294.46 235.318C295.291 236.477 295.706 237.963 295.706 239.776C295.706 241.287 295.354 242.635 294.649 243.818C293.969 245.002 292.949 245.934 291.589 246.614C290.254 247.269 288.642 247.596 286.753 247.596C283.907 247.596 281.59 246.878 279.802 245.443C278.014 244.007 277.069 241.892 276.969 239.096H282.106C282.157 240.33 282.572 241.325 283.353 242.081C284.159 242.811 285.254 243.176 286.64 243.176C287.924 243.176 288.906 242.824 289.586 242.118C290.292 241.388 290.644 240.456 290.644 239.323C290.644 237.812 290.166 236.729 289.209 236.074C288.252 235.419 286.766 235.092 284.751 235.092H283.655V230.747H284.751C288.327 230.747 290.115 229.551 290.115 227.158C290.115 226.075 289.788 225.232 289.133 224.627C288.503 224.023 287.584 223.721 286.375 223.721C285.192 223.721 284.272 224.048 283.617 224.703C282.988 225.333 282.623 226.138 282.522 227.121H277.346ZM299.886 233.278C299.886 228.921 300.667 225.509 302.228 223.041C303.815 220.573 306.434 219.338 310.086 219.338C313.738 219.338 316.344 220.573 317.906 223.041C319.492 225.509 320.286 228.921 320.286 233.278C320.286 237.661 319.492 241.098 317.906 243.592C316.344 246.085 313.738 247.332 310.086 247.332C306.434 247.332 303.815 246.085 302.228 243.592C300.667 241.098 299.886 237.661 299.886 233.278ZM315.072 233.278C315.072 231.415 314.947 229.853 314.695 228.594C314.468 227.31 313.989 226.264 313.259 225.458C312.554 224.653 311.496 224.25 310.086 224.25C308.675 224.25 307.605 224.653 306.875 225.458C306.169 226.264 305.691 227.31 305.439 228.594C305.212 229.853 305.099 231.415 305.099 233.278C305.099 235.193 305.212 236.804 305.439 238.114C305.666 239.398 306.144 240.444 306.875 241.25C307.605 242.03 308.675 242.421 310.086 242.421C311.496 242.421 312.567 242.03 313.297 241.25C314.027 240.444 314.506 239.398 314.732 238.114C314.959 236.804 315.072 235.193 315.072 233.278Z" fill="#1B1C37"/>
<path d="M289.152 255.339L286.234 265.185H284.406L282.338 257.734L280.142 265.185L278.329 265.199L275.538 255.339H277.252L279.292 263.358L281.502 255.339H283.315L285.369 263.315L287.424 255.339H289.152ZM297.638 261.091C297.638 261.384 297.619 261.648 297.581 261.884H291.617C291.664 262.508 291.896 263.008 292.311 263.386C292.727 263.764 293.237 263.953 293.841 263.953C294.71 263.953 295.324 263.589 295.683 262.862H297.426C297.189 263.58 296.76 264.17 296.136 264.633C295.522 265.086 294.757 265.313 293.841 265.313C293.095 265.313 292.425 265.147 291.83 264.817C291.244 264.477 290.781 264.005 290.441 263.4C290.111 262.786 289.946 262.078 289.946 261.275C289.946 260.472 290.106 259.769 290.427 259.164C290.758 258.55 291.216 258.078 291.801 257.748C292.396 257.417 293.076 257.252 293.841 257.252C294.578 257.252 295.234 257.412 295.811 257.734C296.387 258.055 296.835 258.508 297.156 259.094C297.477 259.67 297.638 260.335 297.638 261.091ZM295.952 260.581C295.943 259.986 295.73 259.509 295.315 259.15C294.899 258.791 294.384 258.612 293.771 258.612C293.213 258.612 292.736 258.791 292.34 259.15C291.943 259.5 291.707 259.977 291.631 260.581H295.952ZM306.382 261.091C306.382 261.384 306.363 261.648 306.325 261.884H300.361C300.408 262.508 300.639 263.008 301.055 263.386C301.47 263.764 301.98 263.953 302.585 263.953C303.454 263.953 304.068 263.589 304.427 262.862H306.169C305.933 263.58 305.503 264.17 304.88 264.633C304.266 265.086 303.501 265.313 302.585 265.313C301.839 265.313 301.168 265.147 300.573 264.817C299.988 264.477 299.525 264.005 299.185 263.4C298.854 262.786 298.689 262.078 298.689 261.275C298.689 260.472 298.85 259.769 299.171 259.164C299.501 258.55 299.959 258.078 300.545 257.748C301.14 257.417 301.82 257.252 302.585 257.252C303.322 257.252 303.978 257.412 304.554 257.734C305.13 258.055 305.579 258.508 305.9 259.094C306.221 259.67 306.382 260.335 306.382 261.091ZM304.696 260.581C304.686 259.986 304.474 259.509 304.058 259.15C303.643 258.791 303.128 258.612 302.514 258.612C301.957 258.612 301.48 258.791 301.083 259.15C300.687 259.5 300.45 259.977 300.375 260.581H304.696ZM311.059 261.289L314.658 265.185H312.476L309.586 261.828V265.185H307.971V254.702H309.586V260.794L312.419 257.379H314.658L311.059 261.289ZM318.648 265.313C318.035 265.313 317.482 265.204 316.991 264.987C316.509 264.76 316.127 264.458 315.843 264.08C315.56 263.693 315.409 263.263 315.39 262.791H317.062C317.09 263.122 317.246 263.4 317.529 263.627C317.822 263.844 318.186 263.953 318.62 263.953C319.073 263.953 319.423 263.868 319.668 263.698C319.923 263.518 320.051 263.292 320.051 263.018C320.051 262.725 319.909 262.508 319.626 262.366C319.352 262.224 318.913 262.069 318.308 261.899C317.723 261.738 317.246 261.582 316.878 261.431C316.509 261.28 316.188 261.049 315.914 260.737C315.65 260.425 315.518 260.014 315.518 259.504C315.518 259.089 315.64 258.711 315.886 258.371C316.131 258.022 316.481 257.748 316.934 257.549C317.397 257.351 317.926 257.252 318.521 257.252C319.409 257.252 320.122 257.479 320.66 257.932C321.208 258.376 321.501 258.985 321.538 259.759H319.923C319.895 259.41 319.753 259.131 319.498 258.924C319.243 258.716 318.899 258.612 318.464 258.612C318.039 258.612 317.713 258.692 317.487 258.853C317.26 259.013 317.147 259.226 317.147 259.49C317.147 259.698 317.222 259.873 317.373 260.014C317.525 260.156 317.709 260.269 317.926 260.354C318.143 260.43 318.464 260.529 318.889 260.652C319.456 260.803 319.919 260.959 320.278 261.119C320.646 261.27 320.962 261.497 321.227 261.799C321.491 262.102 321.628 262.503 321.638 263.004C321.638 263.447 321.515 263.844 321.269 264.194C321.024 264.543 320.674 264.817 320.221 265.015C319.777 265.214 319.253 265.313 318.648 265.313Z" fill="#1B1C37" fill-opacity="0.8"/>
<line x1="491.704" y1="194.157" x2="523.185" y2="194.157" stroke="#167FFC" stroke-width="15.7407" stroke-linecap="round"/>
<line x1="491.704" y1="233.509" x2="523.185" y2="233.509" stroke="#7579FF" stroke-width="15.7407" stroke-linecap="round"/>
<line x1="491.704" y1="272.861" x2="523.185" y2="272.861" stroke="#FD3259" stroke-width="15.7407" stroke-linecap="round"/>
<path d="M551.134 185.954C552.52 185.954 553.735 186.225 554.78 186.767C555.838 187.308 556.65 188.083 557.217 189.09C557.796 190.085 558.086 191.243 558.086 192.566C558.086 193.888 557.796 195.046 557.217 196.041C556.65 197.023 555.838 197.785 554.78 198.327C553.735 198.868 552.52 199.139 551.134 199.139H546.526V185.954H551.134ZM551.04 196.891C552.425 196.891 553.496 196.513 554.251 195.758C555.007 195.002 555.384 193.938 555.384 192.566C555.384 191.193 555.007 190.123 554.251 189.354C553.496 188.574 552.425 188.183 551.04 188.183H549.17V196.891H551.04ZM569.793 193.68C569.793 194.058 569.768 194.398 569.717 194.7H562.067C562.13 195.456 562.395 196.047 562.861 196.476C563.326 196.904 563.899 197.118 564.579 197.118C565.562 197.118 566.261 196.696 566.676 195.852H569.528C569.226 196.86 568.647 197.691 567.791 198.346C566.934 198.988 565.883 199.309 564.636 199.309C563.629 199.309 562.722 199.089 561.916 198.648C561.123 198.194 560.499 197.559 560.046 196.74C559.605 195.922 559.385 194.977 559.385 193.907C559.385 192.824 559.605 191.873 560.046 191.054C560.487 190.236 561.104 189.606 561.897 189.166C562.691 188.725 563.604 188.504 564.636 188.504C565.631 188.504 566.519 188.719 567.299 189.147C568.093 189.575 568.704 190.186 569.132 190.979C569.572 191.76 569.793 192.66 569.793 193.68ZM567.054 192.924C567.041 192.244 566.796 191.703 566.317 191.3C565.839 190.884 565.253 190.677 564.561 190.677C563.906 190.677 563.352 190.878 562.898 191.281C562.458 191.672 562.187 192.219 562.086 192.924H567.054ZM575.727 199.309C574.871 199.309 574.103 199.158 573.423 198.856C572.743 198.541 572.202 198.119 571.799 197.59C571.408 197.061 571.194 196.476 571.156 195.833H573.82C573.87 196.236 574.065 196.57 574.405 196.834C574.758 197.099 575.192 197.231 575.709 197.231C576.212 197.231 576.603 197.13 576.88 196.929C577.169 196.727 577.314 196.469 577.314 196.154C577.314 195.814 577.138 195.563 576.785 195.399C576.445 195.223 575.897 195.034 575.142 194.832C574.361 194.643 573.719 194.448 573.215 194.247C572.724 194.045 572.296 193.737 571.931 193.321C571.578 192.906 571.402 192.345 571.402 191.64C571.402 191.061 571.566 190.532 571.893 190.053C572.233 189.575 572.712 189.197 573.329 188.92C573.958 188.643 574.695 188.504 575.539 188.504C576.785 188.504 577.78 188.819 578.523 189.449C579.266 190.066 579.675 190.903 579.751 191.961H577.22C577.182 191.546 577.006 191.218 576.691 190.979C576.389 190.727 575.979 190.601 575.463 190.601C574.984 190.601 574.613 190.689 574.349 190.866C574.097 191.042 573.971 191.287 573.971 191.602C573.971 191.955 574.147 192.226 574.5 192.414C574.852 192.591 575.4 192.773 576.143 192.962C576.899 193.151 577.522 193.346 578.013 193.548C578.504 193.749 578.926 194.064 579.279 194.492C579.644 194.908 579.833 195.462 579.845 196.154C579.845 196.759 579.675 197.3 579.335 197.779C579.008 198.257 578.529 198.635 577.9 198.912C577.283 199.177 576.559 199.309 575.727 199.309ZM583.357 187.428C582.891 187.428 582.501 187.283 582.186 186.993C581.884 186.691 581.733 186.32 581.733 185.879C581.733 185.438 581.884 185.073 582.186 184.783C582.501 184.481 582.891 184.33 583.357 184.33C583.823 184.33 584.207 184.481 584.509 184.783C584.824 185.073 584.982 185.438 584.982 185.879C584.982 186.32 584.824 186.691 584.509 186.993C584.207 187.283 583.823 187.428 583.357 187.428ZM584.66 188.674V199.139H582.016V188.674H584.66ZM593.072 188.523C594.319 188.523 595.326 188.92 596.094 189.713C596.862 190.494 597.246 191.59 597.246 193V199.139H594.602V193.359C594.602 192.528 594.394 191.892 593.979 191.451C593.563 190.998 592.996 190.771 592.279 190.771C591.548 190.771 590.969 190.998 590.541 191.451C590.125 191.892 589.918 192.528 589.918 193.359V199.139H587.273V188.674H589.918V189.978C590.27 189.524 590.717 189.172 591.259 188.92C591.813 188.656 592.417 188.523 593.072 188.523ZM603.86 188.504C604.641 188.504 605.327 188.662 605.919 188.977C606.511 189.279 606.977 189.676 607.317 190.167V188.674H609.98V199.214C609.98 200.184 609.785 201.047 609.395 201.802C609.004 202.57 608.419 203.175 607.638 203.616C606.857 204.069 605.913 204.296 604.805 204.296C603.319 204.296 602.097 203.949 601.14 203.257C600.196 202.564 599.66 201.62 599.535 200.423H602.16C602.299 200.902 602.595 201.28 603.048 201.557C603.514 201.846 604.074 201.991 604.729 201.991C605.497 201.991 606.12 201.758 606.599 201.292C607.077 200.839 607.317 200.146 607.317 199.214V197.59C606.977 198.081 606.505 198.49 605.9 198.818C605.308 199.145 604.628 199.309 603.86 199.309C602.979 199.309 602.173 199.082 601.442 198.629C600.712 198.176 600.133 197.54 599.705 196.721C599.289 195.89 599.081 194.939 599.081 193.869C599.081 192.811 599.289 191.873 599.705 191.054C600.133 190.236 600.706 189.606 601.423 189.166C602.154 188.725 602.966 188.504 603.86 188.504ZM607.317 193.907C607.317 193.264 607.191 192.717 606.939 192.263C606.687 191.797 606.347 191.445 605.919 191.206C605.491 190.954 605.031 190.828 604.54 190.828C604.049 190.828 603.596 190.947 603.18 191.187C602.765 191.426 602.425 191.779 602.16 192.244C601.908 192.698 601.782 193.239 601.782 193.869C601.782 194.499 601.908 195.053 602.16 195.531C602.425 195.997 602.765 196.356 603.18 196.608C603.608 196.86 604.062 196.986 604.54 196.986C605.031 196.986 605.491 196.866 605.919 196.627C606.347 196.375 606.687 196.022 606.939 195.569C607.191 195.103 607.317 194.549 607.317 193.907Z" fill="white"/>
<path d="M556.14 229.386C556.14 230.091 555.97 230.753 555.63 231.37C555.303 231.987 554.78 232.484 554.062 232.862C553.357 233.24 552.463 233.429 551.38 233.429H549.17V238.491H546.526V225.306H551.38C552.4 225.306 553.269 225.483 553.987 225.835C554.704 226.188 555.24 226.673 555.592 227.29C555.957 227.907 556.14 228.606 556.14 229.386ZM551.267 231.294C551.997 231.294 552.538 231.13 552.891 230.803C553.244 230.463 553.42 229.991 553.42 229.386C553.42 228.102 552.702 227.46 551.267 227.46H549.17V231.294H551.267ZM560.662 229.651C561.002 229.097 561.443 228.662 561.984 228.347C562.538 228.033 563.168 227.875 563.873 227.875V230.652H563.174C562.343 230.652 561.713 230.847 561.285 231.237C560.87 231.628 560.662 232.308 560.662 233.277V238.491H558.017V228.026H560.662V229.651ZM570.301 238.661C569.293 238.661 568.387 238.44 567.581 238C566.775 237.546 566.139 236.91 565.673 236.092C565.22 235.273 564.993 234.329 564.993 233.259C564.993 232.188 565.226 231.244 565.692 230.425C566.17 229.607 566.819 228.977 567.638 228.536C568.456 228.083 569.369 227.856 570.376 227.856C571.384 227.856 572.297 228.083 573.115 228.536C573.934 228.977 574.576 229.607 575.042 230.425C575.52 231.244 575.76 232.188 575.76 233.259C575.76 234.329 575.514 235.273 575.023 236.092C574.545 236.91 573.89 237.546 573.059 238C572.24 238.44 571.321 238.661 570.301 238.661ZM570.301 236.356C570.779 236.356 571.226 236.243 571.642 236.016C572.07 235.777 572.41 235.424 572.662 234.959C572.914 234.493 573.04 233.926 573.04 233.259C573.04 232.264 572.775 231.502 572.246 230.973C571.73 230.431 571.094 230.161 570.339 230.161C569.583 230.161 568.947 230.431 568.431 230.973C567.927 231.502 567.675 232.264 567.675 233.259C567.675 234.253 567.921 235.021 568.412 235.563C568.916 236.092 569.545 236.356 570.301 236.356ZM581.798 227.856C582.579 227.856 583.265 228.014 583.857 228.328C584.449 228.631 584.915 229.027 585.255 229.518V228.026H587.918V238.566C587.918 239.536 587.723 240.399 587.333 241.154C586.943 241.922 586.357 242.527 585.576 242.967C584.795 243.421 583.851 243.647 582.743 243.647C581.257 243.647 580.035 243.301 579.078 242.609C578.134 241.916 577.599 240.971 577.473 239.775H580.098C580.237 240.254 580.533 240.631 580.986 240.909C581.452 241.198 582.013 241.343 582.667 241.343C583.435 241.343 584.059 241.11 584.537 240.644C585.016 240.191 585.255 239.498 585.255 238.566V236.942C584.915 237.433 584.443 237.842 583.838 238.17C583.247 238.497 582.567 238.661 581.798 238.661C580.917 238.661 580.111 238.434 579.381 237.981C578.65 237.527 578.071 236.891 577.643 236.073C577.227 235.242 577.02 234.291 577.02 233.221C577.02 232.163 577.227 231.225 577.643 230.406C578.071 229.588 578.644 228.958 579.362 228.517C580.092 228.077 580.904 227.856 581.798 227.856ZM585.255 233.259C585.255 232.616 585.129 232.069 584.877 231.615C584.625 231.149 584.285 230.797 583.857 230.557C583.429 230.306 582.97 230.18 582.478 230.18C581.987 230.18 581.534 230.299 581.118 230.538C580.703 230.778 580.363 231.13 580.098 231.596C579.847 232.05 579.721 232.591 579.721 233.221C579.721 233.85 579.847 234.404 580.098 234.883C580.363 235.349 580.703 235.708 581.118 235.96C581.547 236.211 582 236.337 582.478 236.337C582.97 236.337 583.429 236.218 583.857 235.979C584.285 235.727 584.625 235.374 584.877 234.921C585.129 234.455 585.255 233.901 585.255 233.259ZM593.146 229.651C593.486 229.097 593.926 228.662 594.468 228.347C595.022 228.033 595.652 227.875 596.357 227.875V230.652H595.658C594.827 230.652 594.197 230.847 593.769 231.237C593.353 231.628 593.146 232.308 593.146 233.277V238.491H590.501V228.026H593.146V229.651ZM597.458 233.221C597.458 232.163 597.666 231.225 598.081 230.406C598.509 229.588 599.082 228.958 599.8 228.517C600.531 228.077 601.343 227.856 602.237 227.856C603.018 227.856 603.698 228.014 604.277 228.328C604.869 228.643 605.341 229.04 605.693 229.518V228.026H608.357V238.491H605.693V236.961C605.353 237.452 604.881 237.861 604.277 238.189C603.685 238.503 602.999 238.661 602.218 238.661C601.336 238.661 600.531 238.434 599.8 237.981C599.082 237.527 598.509 236.891 598.081 236.073C597.666 235.242 597.458 234.291 597.458 233.221ZM605.693 233.259C605.693 232.616 605.568 232.069 605.316 231.615C605.064 231.149 604.724 230.797 604.296 230.557C603.868 230.306 603.408 230.18 602.917 230.18C602.426 230.18 601.972 230.299 601.557 230.538C601.141 230.778 600.801 231.13 600.537 231.596C600.285 232.05 600.159 232.591 600.159 233.221C600.159 233.85 600.285 234.404 600.537 234.883C600.801 235.349 601.141 235.708 601.557 235.96C601.985 236.211 602.438 236.337 602.917 236.337C603.408 236.337 603.868 236.218 604.296 235.979C604.724 235.727 605.064 235.374 605.316 234.921C605.568 234.455 605.693 233.901 605.693 233.259ZM623.935 227.875C625.22 227.875 626.252 228.272 627.033 229.065C627.826 229.846 628.223 230.941 628.223 232.352V238.491H625.578V232.711C625.578 231.892 625.371 231.269 624.955 230.841C624.54 230.4 623.973 230.18 623.255 230.18C622.537 230.18 621.964 230.4 621.536 230.841C621.121 231.269 620.913 231.892 620.913 232.711V238.491H618.268V232.711C618.268 231.892 618.061 231.269 617.645 230.841C617.23 230.4 616.663 230.18 615.945 230.18C615.215 230.18 614.635 230.4 614.207 230.841C613.792 231.269 613.584 231.892 613.584 232.711V238.491H610.94V228.026H613.584V229.292C613.924 228.851 614.358 228.505 614.887 228.253C615.429 228.001 616.021 227.875 616.663 227.875C617.481 227.875 618.212 228.051 618.854 228.404C619.496 228.744 619.994 229.235 620.346 229.877C620.686 229.273 621.177 228.788 621.82 228.423C622.474 228.058 623.18 227.875 623.935 227.875ZM632.073 226.78C631.608 226.78 631.217 226.635 630.902 226.345C630.6 226.043 630.449 225.671 630.449 225.231C630.449 224.79 630.6 224.425 630.902 224.135C631.217 223.833 631.608 223.682 632.073 223.682C632.539 223.682 632.923 223.833 633.226 224.135C633.54 224.425 633.698 224.79 633.698 225.231C633.698 225.671 633.54 226.043 633.226 226.345C632.923 226.635 632.539 226.78 632.073 226.78ZM633.377 228.026V238.491H630.732V228.026H633.377ZM641.788 227.875C643.035 227.875 644.042 228.272 644.811 229.065C645.579 229.846 645.963 230.941 645.963 232.352V238.491H643.318V232.711C643.318 231.88 643.111 231.244 642.695 230.803C642.279 230.35 641.713 230.123 640.995 230.123C640.265 230.123 639.685 230.35 639.257 230.803C638.842 231.244 638.634 231.88 638.634 232.711V238.491H635.989V228.026H638.634V229.33C638.987 228.876 639.434 228.524 639.975 228.272C640.529 228.007 641.134 227.875 641.788 227.875ZM652.576 227.856C653.357 227.856 654.043 228.014 654.635 228.328C655.227 228.631 655.693 229.027 656.033 229.518V228.026H658.696V238.566C658.696 239.536 658.501 240.399 658.111 241.154C657.721 241.922 657.135 242.527 656.354 242.967C655.573 243.421 654.629 243.647 653.521 243.647C652.035 243.647 650.813 243.301 649.856 242.609C648.912 241.916 648.377 240.971 648.251 239.775H650.876C651.015 240.254 651.311 240.631 651.764 240.909C652.23 241.198 652.791 241.343 653.445 241.343C654.213 241.343 654.837 241.11 655.315 240.644C655.794 240.191 656.033 239.498 656.033 238.566V236.942C655.693 237.433 655.221 237.842 654.616 238.17C654.025 238.497 653.345 238.661 652.576 238.661C651.695 238.661 650.889 238.434 650.159 237.981C649.428 237.527 648.849 236.891 648.421 236.073C648.005 235.242 647.798 234.291 647.798 233.221C647.798 232.163 648.005 231.225 648.421 230.406C648.849 229.588 649.422 228.958 650.14 228.517C650.87 228.077 651.682 227.856 652.576 227.856ZM656.033 233.259C656.033 232.616 655.907 232.069 655.655 231.615C655.403 231.149 655.063 230.797 654.635 230.557C654.207 230.306 653.748 230.18 653.256 230.18C652.765 230.18 652.312 230.299 651.896 230.538C651.481 230.778 651.141 231.13 650.876 231.596C650.625 232.05 650.499 232.591 650.499 233.221C650.499 233.85 650.625 234.404 650.876 234.883C651.141 235.349 651.481 235.708 651.896 235.96C652.325 236.211 652.778 236.337 653.256 236.337C653.748 236.337 654.207 236.218 654.635 235.979C655.063 235.727 655.403 235.374 655.655 234.921C655.907 234.455 656.033 233.901 656.033 233.259Z" fill="white"/>
<path d="M555.498 267.806V269.941H551.984V280.991H549.34V269.941H545.827V267.806H555.498ZM567.155 275.532C567.155 275.91 567.13 276.25 567.079 276.552H559.429C559.492 277.307 559.757 277.899 560.223 278.327C560.689 278.756 561.262 278.97 561.942 278.97C562.924 278.97 563.623 278.548 564.038 277.704H566.891C566.588 278.711 566.009 279.543 565.153 280.197C564.296 280.84 563.245 281.161 561.998 281.161C560.991 281.161 560.084 280.94 559.278 280.5C558.485 280.046 557.862 279.41 557.408 278.592C556.968 277.773 556.747 276.829 556.747 275.759C556.747 274.676 556.968 273.725 557.408 272.906C557.849 272.088 558.466 271.458 559.259 271.017C560.053 270.577 560.966 270.356 561.998 270.356C562.993 270.356 563.881 270.57 564.662 270.998C565.455 271.427 566.066 272.037 566.494 272.831C566.935 273.611 567.155 274.512 567.155 275.532ZM564.416 274.776C564.403 274.096 564.158 273.555 563.679 273.152C563.201 272.736 562.615 272.528 561.923 272.528C561.268 272.528 560.714 272.73 560.261 273.133C559.82 273.523 559.549 274.071 559.448 274.776H564.416ZM573.09 281.161C572.233 281.161 571.465 281.01 570.785 280.707C570.105 280.393 569.564 279.971 569.161 279.442C568.77 278.913 568.556 278.327 568.519 277.685H571.182C571.232 278.088 571.427 278.422 571.767 278.686C572.12 278.951 572.554 279.083 573.071 279.083C573.574 279.083 573.965 278.982 574.242 278.781C574.531 278.579 574.676 278.321 574.676 278.006C574.676 277.666 574.5 277.414 574.147 277.251C573.807 277.074 573.26 276.886 572.504 276.684C571.723 276.495 571.081 276.3 570.577 276.099C570.086 275.897 569.658 275.589 569.293 275.173C568.94 274.757 568.764 274.197 568.764 273.492C568.764 272.913 568.928 272.384 569.255 271.905C569.595 271.427 570.074 271.049 570.691 270.772C571.32 270.495 572.057 270.356 572.901 270.356C574.147 270.356 575.142 270.671 575.885 271.301C576.628 271.918 577.037 272.755 577.113 273.813H574.582C574.544 273.397 574.368 273.07 574.053 272.831C573.751 272.579 573.341 272.453 572.825 272.453C572.347 272.453 571.975 272.541 571.711 272.717C571.459 272.894 571.333 273.139 571.333 273.454C571.333 273.807 571.509 274.077 571.862 274.266C572.214 274.443 572.762 274.625 573.505 274.814C574.261 275.003 574.884 275.198 575.375 275.4C575.866 275.601 576.288 275.916 576.641 276.344C577.006 276.76 577.195 277.314 577.207 278.006C577.207 278.611 577.037 279.152 576.697 279.631C576.37 280.109 575.891 280.487 575.262 280.764C574.645 281.029 573.921 281.161 573.09 281.161ZM582.457 272.699V277.761C582.457 278.113 582.539 278.371 582.703 278.535C582.879 278.686 583.169 278.762 583.571 278.762H584.799V280.991H583.137C580.908 280.991 579.794 279.908 579.794 277.742V272.699H578.547V270.526H579.794V267.938H582.457V270.526H584.799V272.699H582.457Z" fill="white"/>
<path d="M242.914 16.4142C243.695 15.6332 243.695 14.3668 242.914 13.5858L230.186 0.857864C229.405 0.0768156 228.139 0.0768156 227.358 0.857864C226.577 1.63891 226.577 2.90524 227.358 3.68629L238.672 15L227.358 26.3137C226.577 27.0948 226.577 28.3611 227.358 29.1421C228.139 29.9232 229.405 29.9232 230.186 29.1421L242.914 16.4142ZM2 15V13H0V15H2ZM2 452H0V454H2V452ZM242.914 453.414C243.695 452.633 243.695 451.367 242.914 450.586L230.186 437.858C229.405 437.077 228.139 437.077 227.358 437.858C226.577 438.639 226.577 439.905 227.358 440.686L238.672 452L227.358 463.314C226.577 464.095 226.577 465.361 227.358 466.142C228.139 466.923 229.405 466.923 230.186 466.142L242.914 453.414ZM241.5 13H237.508V17H241.5V13ZM221.542 13H197.592V17H221.542V13ZM165.658 13H157.675V17H165.658V13ZM141.708 13H117.758V17H141.708V13ZM85.825 13H77.8417V17H85.825V13ZM61.875 13H37.925V17H61.875V13ZM5.99166 13H2V17H5.99166V13ZM0 15V19.37H4V15H0ZM0 36.85V63.07H4V36.85H0ZM0 98.03V106.77H4V98.03H0ZM0 124.25V150.47H4V124.25H0ZM0 185.43V194.17H4V185.43H0ZM0 211.65V237.87H4V211.65H0ZM0 272.83V281.57H4V272.83H0ZM0 299.05V325.27H4V299.05H0ZM0 360.23V368.97H4V360.23H0ZM0 386.45V412.67H4V386.45H0ZM0 447.63V452H4V447.63H0ZM2 454H5.99167V450H2V454ZM21.9583 454H45.9083V450H21.9583V454ZM77.8417 454H85.825V450H77.8417V454ZM101.792 454H125.742V450H101.792V454ZM157.675 454H165.658V450H157.675V454ZM181.625 454H205.575V450H181.625V454ZM237.508 454H241.5V450H237.508V454Z" fill="#5F6073"/>
</svg>
